<svg width="209" height="207" viewBox="0 0 209 207" fill="none" xmlns="http://www.w3.org/2000/svg">
<g filter="url(#filter0_d_11_67)">
<path d="M104.5 0L127.73 43.9767L175.564 29.1429L160.581 76.5015L205 99.5L160.581 122.499L175.564 169.857L127.73 155.023L104.5 199L81.2704 155.023L33.4358 169.857L48.4187 122.499L4 99.5L48.4187 76.5015L33.4358 29.1429L81.2704 43.9767L104.5 0Z" fill="#B9C400"/>
<path d="M66.3601 116.348C64.6035 116.348 63.0374 116.025 61.6619 115.379C60.2947 114.732 59.2093 113.842 58.4055 112.706C57.6018 111.571 57.1834 110.27 57.1502 108.804H62.3704C62.4284 109.79 62.8427 110.589 63.6133 111.202C64.3839 111.816 65.2995 112.122 66.3601 112.122C67.2053 112.122 67.951 111.936 68.5973 111.563C69.2519 111.182 69.7615 110.656 70.1261 109.984C70.4989 109.305 70.6854 108.526 70.6854 107.648C70.6854 106.753 70.4948 105.966 70.1136 105.286C69.7408 104.607 69.2229 104.076 68.56 103.695C67.8971 103.314 67.139 103.119 66.2855 103.111C65.5398 103.111 64.8147 103.264 64.1104 103.571C63.4144 103.878 62.8717 104.296 62.4822 104.826L57.6971 103.969L58.9027 90.5455H74.4638V94.9453H63.3398L62.6811 101.321H62.8303C63.2777 100.692 63.953 100.17 64.8562 99.7553C65.7594 99.341 66.7702 99.1339 67.8888 99.1339C69.4218 99.1339 70.7889 99.4943 71.9904 100.215C73.1919 100.936 74.1406 101.926 74.8366 103.186C75.5327 104.437 75.8765 105.879 75.8683 107.511C75.8765 109.226 75.4788 110.751 74.6751 112.085C73.8796 113.411 72.7652 114.455 71.3317 115.217C69.9065 115.971 68.2493 116.348 66.3601 116.348ZM88.8317 90.1974C90.1409 90.1974 91.4003 90.417 92.6101 90.8562C93.8281 91.2953 94.9136 91.9955 95.8665 92.9567C96.8277 93.9179 97.5858 95.1939 98.141 96.7848C98.7044 98.3674 98.9903 100.31 98.9986 102.614C98.9986 104.777 98.7541 106.707 98.2653 108.406C97.7847 110.096 97.0928 111.534 96.1896 112.719C95.2865 113.904 94.1969 114.807 92.9208 115.428C91.6448 116.041 90.2196 116.348 88.6452 116.348C86.9466 116.348 85.4469 116.021 84.146 115.366C82.8451 114.703 81.7969 113.804 81.0014 112.669C80.2143 111.526 79.7378 110.241 79.5721 108.816H84.8793C85.0864 109.744 85.5214 110.465 86.1843 110.979C86.8472 111.484 87.6675 111.737 88.6452 111.737C90.3024 111.737 91.5619 111.016 92.4237 109.574C93.2854 108.124 93.7204 106.14 93.7287 103.621H93.5547C93.1735 104.366 92.6598 105.009 92.0135 105.547C91.3672 106.078 90.6256 106.488 89.7887 106.778C88.9601 107.068 88.0777 107.213 87.1413 107.213C85.6416 107.213 84.3034 106.861 83.1268 106.156C81.9502 105.452 81.0221 104.482 80.3427 103.248C79.6632 102.013 79.3235 100.605 79.3235 99.022C79.3152 97.3151 79.7088 95.7946 80.5043 94.4606C81.2997 93.1265 82.41 92.0825 83.8352 91.3285C85.2687 90.5662 86.9342 90.1892 88.8317 90.1974ZM88.869 94.4233C88.0321 94.4233 87.2863 94.6222 86.6317 95.0199C85.9854 95.4176 85.4717 95.9521 85.0906 96.6232C84.7177 97.2944 84.5354 98.0443 84.5437 98.8729C84.5437 99.7098 84.726 100.464 85.0906 101.135C85.4634 101.798 85.9689 102.328 86.6069 102.726C87.2532 103.115 87.9906 103.31 88.8192 103.31C89.4407 103.31 90.0166 103.194 90.5469 102.962C91.0772 102.73 91.5371 102.411 91.9265 102.005C92.3242 101.591 92.6349 101.114 92.8587 100.576C93.0824 100.037 93.1942 99.4653 93.1942 98.8604C93.186 98.0567 92.9954 97.3192 92.6225 96.6481C92.2496 95.9769 91.7359 95.4383 91.0813 95.0323C90.4267 94.6263 89.6893 94.4233 88.869 94.4233ZM112.708 116.559C110.57 116.551 108.73 116.025 107.189 114.981C105.656 113.937 104.476 112.425 103.647 110.444C102.827 108.464 102.421 106.082 102.429 103.298C102.429 100.522 102.839 98.1561 103.659 96.2006C104.488 94.2451 105.669 92.7578 107.202 91.7386C108.743 90.7112 110.578 90.1974 112.708 90.1974C114.837 90.1974 116.668 90.7112 118.201 91.7386C119.743 92.7661 120.927 94.2576 121.756 96.2131C122.585 98.1603 122.995 100.522 122.987 103.298C122.987 106.09 122.572 108.476 121.744 110.457C120.923 112.437 119.747 113.949 118.214 114.993C116.681 116.037 114.846 116.559 112.708 116.559ZM112.708 112.097C114.166 112.097 115.33 111.364 116.2 109.897C117.07 108.431 117.501 106.231 117.493 103.298C117.493 101.367 117.294 99.7595 116.896 98.4751C116.507 97.1908 115.952 96.2255 115.231 95.5792C114.518 94.9329 113.677 94.6097 112.708 94.6097C111.258 94.6097 110.098 95.3348 109.228 96.7848C108.358 98.2348 107.918 100.406 107.91 103.298C107.91 105.253 108.105 106.885 108.494 108.195C108.892 109.496 109.451 110.473 110.172 111.128C110.893 111.774 111.738 112.097 112.708 112.097ZM151.729 99.3079L150.498 102.03H133.881L134.887 99.3079H151.729ZM149.355 104.516L148 107.3H133.881L134.887 104.516H149.355ZM154.96 92.5092L152.971 96.7599C152.64 96.5279 152.238 96.2752 151.766 96.0018C151.302 95.7201 150.767 95.4839 150.162 95.2933C149.566 95.0945 148.903 94.995 148.174 94.995C147.022 94.995 146.019 95.285 145.166 95.8651C144.313 96.4451 143.65 97.3482 143.177 98.5746C142.713 99.8009 142.481 101.375 142.481 103.298C142.481 105.237 142.713 106.815 143.177 108.033C143.65 109.243 144.313 110.134 145.166 110.705C146.019 111.269 147.022 111.55 148.174 111.55C148.903 111.55 149.566 111.455 150.162 111.265C150.759 111.074 151.281 110.846 151.729 110.581C152.184 110.316 152.565 110.071 152.872 109.848L154.885 114.098C153.982 114.844 152.959 115.408 151.816 115.789C150.672 116.162 149.458 116.348 148.174 116.348C146.003 116.348 144.081 115.834 142.407 114.807C140.741 113.771 139.436 112.284 138.492 110.345C137.547 108.398 137.075 106.049 137.075 103.298C137.075 100.555 137.547 98.2058 138.492 96.2504C139.436 94.2949 140.741 92.7992 142.407 91.7635C144.081 90.7195 146.003 90.1974 148.174 90.1974C149.508 90.1974 150.742 90.3963 151.878 90.794C153.013 91.1918 154.04 91.7635 154.96 92.5092Z" fill="#262C27"/>
</g>
<defs>
<filter id="filter0_d_11_67" x="0" y="0" width="209" height="207" filterUnits="userSpaceOnUse" color-interpolation-filters="sRGB">
<feFlood flood-opacity="0" result="BackgroundImageFix"/>
<feColorMatrix in="SourceAlpha" type="matrix" values="0 0 0 0 0 0 0 0 0 0 0 0 0 0 0 0 0 0 127 0" result="hardAlpha"/>
<feOffset dy="4"/>
<feGaussianBlur stdDeviation="2"/>
<feComposite in2="hardAlpha" operator="out"/>
<feColorMatrix type="matrix" values="0 0 0 0 0 0 0 0 0 0 0 0 0 0 0 0 0 0 0.25 0"/>
<feBlend mode="normal" in2="BackgroundImageFix" result="effect1_dropShadow_11_67"/>
<feBlend mode="normal" in="SourceGraphic" in2="effect1_dropShadow_11_67" result="shape"/>
</filter>
</defs>
</svg>
